<svg preserveAspectRatio="none" width="100%" height="100%" overflow="visible" style="display: block;" viewBox="0 0 27.9773 27.9773" fill="none" xmlns="http://www.w3.org/2000/svg">
<g id="Icon">
<path id="Vector" d="M17.4858 2.33144H10.4915C9.84768 2.33144 9.32577 2.85335 9.32577 3.49716V5.82861C9.32577 6.47242 9.84768 6.99433 10.4915 6.99433H17.4858C18.1296 6.99433 18.6515 6.47242 18.6515 5.82861V3.49716C18.6515 2.85335 18.1296 2.33144 17.4858 2.33144Z" stroke="var(--stroke-0, white)" stroke-width="2.33144" stroke-linecap="round" stroke-linejoin="round"/>
<path id="Vector_2" d="M18.6515 4.66289H20.983C21.6013 4.66289 22.1943 4.90852 22.6316 5.34575C23.0688 5.78298 23.3144 6.37599 23.3144 6.99433V23.3144C23.3144 23.9328 23.0688 24.5258 22.6316 24.963C22.1943 25.4002 21.6013 25.6459 20.983 25.6459H6.99433C6.37599 25.6459 5.78298 25.4002 5.34575 24.963C4.90852 24.5258 4.66289 23.9328 4.66289 23.3144V6.99433C4.66289 6.37599 4.90852 5.78298 5.34575 5.34575C5.78298 4.90852 6.37599 4.66289 6.99433 4.66289H9.32577" stroke="var(--stroke-0, white)" stroke-width="2.33144" stroke-linecap="round" stroke-linejoin="round"/>
<path id="Vector_3" d="M13.9887 12.8229H18.6515" stroke="var(--stroke-0, white)" stroke-width="2.33144" stroke-linecap="round" stroke-linejoin="round"/>
<path id="Vector_4" d="M13.9887 18.6515H18.6515" stroke="var(--stroke-0, white)" stroke-width="2.33144" stroke-linecap="round" stroke-linejoin="round"/>
<path id="Vector_5" d="M9.32577 12.8229H9.33743" stroke="var(--stroke-0, white)" stroke-width="2.33144" stroke-linecap="round" stroke-linejoin="round"/>
<path id="Vector_6" d="M9.32577 18.6515H9.33743" stroke="var(--stroke-0, white)" stroke-width="2.33144" stroke-linecap="round" stroke-linejoin="round"/>
</g>
</svg>
