<svg preserveAspectRatio="none" width="100%" height="100%" overflow="visible" style="display: block;" viewBox="0 0 21.986 21.986" fill="none" xmlns="http://www.w3.org/2000/svg">
<g id="Icon" clip-path="url(#clip0_0_96)">
<path id="Vector" d="M18.3217 11.9091C18.3217 16.4895 15.1154 18.7798 11.3045 20.1081C11.1049 20.1757 10.8882 20.1725 10.6907 20.0989C6.87064 18.7798 3.66434 16.4895 3.66434 11.9091V5.49651C3.66434 5.25355 3.76086 5.02054 3.93266 4.84874C4.10446 4.67694 4.33747 4.58043 4.58043 4.58043C6.4126 4.58043 8.70281 3.48112 10.2968 2.08867C10.4909 1.92286 10.7378 1.83176 10.993 1.83176C11.2483 1.83176 11.4952 1.92286 11.6892 2.08867C13.2924 3.49029 15.5735 4.58043 17.4056 4.58043C17.6486 4.58043 17.8816 4.67694 18.0534 4.84874C18.2252 5.02054 18.3217 5.25355 18.3217 5.49651V11.9091Z" stroke="var(--stroke-0, #F8FAFC)" stroke-width="1.83217" stroke-linecap="round" stroke-linejoin="round"/>
</g>
<defs>
<clipPath id="clip0_0_96">
<rect width="21.986" height="21.986" fill="white"/>
</clipPath>
</defs>
</svg>
