<svg preserveAspectRatio="none" width="100%" height="100%" overflow="visible" style="display: block;" viewBox="0 0 21.986 21.986" fill="none" xmlns="http://www.w3.org/2000/svg">
<g id="Icon" clip-path="url(#clip0_0_108)">
<path id="Vector" d="M20.1539 10.993H17.882C17.4816 10.9922 17.092 11.1225 16.7727 11.364C16.4534 11.6055 16.222 11.945 16.1139 12.3305L13.9611 19.989C13.9473 20.0366 13.9183 20.0783 13.8787 20.1081C13.8391 20.1378 13.7908 20.1539 13.7413 20.1539C13.6917 20.1539 13.6435 20.1378 13.6039 20.1081C13.5642 20.0783 13.5353 20.0366 13.5214 19.989L8.46463 1.99707C8.45075 1.94949 8.42182 1.90771 8.38218 1.87797C8.34254 1.84824 8.29432 1.83217 8.24477 1.83217C8.19522 1.83217 8.147 1.84824 8.10736 1.87797C8.06771 1.90771 8.03878 1.94949 8.02491 1.99707L5.87211 9.65554C5.76444 10.0395 5.53442 10.3779 5.21698 10.6193C4.89954 10.8607 4.51201 10.9919 4.11322 10.993H1.83217" stroke="var(--stroke-0, #F8FAFC)" stroke-width="1.83217" stroke-linecap="round" stroke-linejoin="round"/>
</g>
<defs>
<clipPath id="clip0_0_108">
<rect width="21.986" height="21.986" fill="white"/>
</clipPath>
</defs>
</svg>
