<svg preserveAspectRatio="none" width="100%" height="100%" overflow="visible" style="display: block;" viewBox="0 0 21.8229 21.9928" fill="none" xmlns="http://www.w3.org/2000/svg">
<path id="Vector" d="M13.9954 4.87841L12.9958 8.99707H18.8239C19.1342 8.99707 19.4404 9.06933 19.718 9.20814C19.9956 9.34695 20.2371 9.54849 20.4233 9.79681C20.6096 10.0451 20.7354 10.3334 20.791 10.6388C20.8465 10.9441 20.8301 11.2583 20.7432 11.5562L18.414 19.5536C18.2929 19.9689 18.0403 20.3337 17.6942 20.5933C17.3482 20.8528 16.9272 20.9932 16.4946 20.9932H2.99902C2.46876 20.9932 1.96022 20.7825 1.58527 20.4076C1.21032 20.0326 0.999674 19.5241 0.999674 18.9938V10.9964C0.999674 10.4662 1.21032 9.95761 1.58527 9.58266C1.96022 9.20771 2.46876 8.99707 2.99902 8.99707H5.75812C6.13008 8.99687 6.49462 8.89291 6.81073 8.69688C7.12685 8.50086 7.38202 8.22053 7.54754 7.88743L10.9964 0.999674C11.4678 1.00551 11.9318 1.1178 12.3538 1.32816C12.7757 1.53852 13.1446 1.84151 13.433 2.21448C13.7214 2.58746 13.9218 3.02078 14.0192 3.48207C14.1166 3.94336 14.1084 4.42069 13.9954 4.87841Z" stroke="var(--stroke-0, #18CF91)" stroke-width="1.99935" stroke-linecap="round" stroke-linejoin="round"/>
</svg>
