<svg preserveAspectRatio="none" width="100%" height="100%" overflow="visible" style="display: block;" viewBox="0 0 31.4745 31.9896" fill="none" xmlns="http://www.w3.org/2000/svg">
<g id="Icon">
<path id="Vector" d="M15.7372 29.1091C22.9801 29.1091 28.8516 23.2376 28.8516 15.9948C28.8516 8.75192 22.9801 2.88042 15.7372 2.88042C8.49438 2.88042 2.62287 8.75192 2.62287 15.9948C2.62287 23.2376 8.49438 29.1091 15.7372 29.1091Z" stroke="var(--stroke-0, #741CD9)" stroke-width="2.62287" stroke-linecap="round" stroke-linejoin="round"/>
<path id="Vector_2" d="M15.7372 23.8634C20.083 23.8634 23.6059 20.3405 23.6059 15.9948C23.6059 11.6491 20.083 8.12616 15.7372 8.12616C11.3915 8.12616 7.86862 11.6491 7.86862 15.9948C7.86862 20.3405 11.3915 23.8634 15.7372 23.8634Z" stroke="var(--stroke-0, #741CD9)" stroke-width="2.62287" stroke-linecap="round" stroke-linejoin="round"/>
<path id="Vector_3" d="M15.7372 18.6177C17.1858 18.6177 18.3601 17.4434 18.3601 15.9948C18.3601 14.5462 17.1858 13.3719 15.7372 13.3719C14.2887 13.3719 13.1144 14.5462 13.1144 15.9948C13.1144 17.4434 14.2887 18.6177 15.7372 18.6177Z" stroke="var(--stroke-0, #741CD9)" stroke-width="2.62287" stroke-linecap="round" stroke-linejoin="round"/>
</g>
</svg>
