<svg preserveAspectRatio="none" width="100%" height="100%" overflow="visible" style="display: block;" viewBox="0 0 31.9896 31.9896" fill="none" xmlns="http://www.w3.org/2000/svg">
<g id="Icon">
<path id="Vector" d="M15.411 4.35325C15.4685 4.24876 15.553 4.16162 15.6557 4.10093C15.7584 4.04025 15.8755 4.00823 15.9948 4.00823C16.1141 4.00823 16.2312 4.04025 16.3339 4.10093C16.4365 4.16162 16.5211 4.24876 16.5786 4.35325L20.5133 11.8228C20.6071 11.9958 20.7381 12.1458 20.8968 12.2622C21.0555 12.3785 21.238 12.4583 21.4311 12.4957C21.6243 12.5332 21.8234 12.5274 22.0141 12.4788C22.2047 12.4302 22.3823 12.34 22.534 12.2147L28.2348 7.33094C28.3442 7.24193 28.4791 7.18994 28.6199 7.18246C28.7608 7.17497 28.9004 7.21238 29.0187 7.28928C29.1369 7.36619 29.2277 7.47864 29.278 7.61044C29.3283 7.74224 29.3354 7.88659 29.2984 8.02272L25.521 21.6796C25.4439 21.9591 25.2778 22.2058 25.0478 22.3823C24.8179 22.5589 24.5367 22.6556 24.2468 22.6579H7.74414C7.45402 22.6559 7.17247 22.5593 6.94226 22.3827C6.71204 22.2061 6.54573 21.9593 6.46856 21.6796L2.69246 8.02405C2.65547 7.88792 2.66263 7.74357 2.7129 7.61177C2.76318 7.47997 2.85398 7.36753 2.97223 7.29062C3.09048 7.21371 3.23009 7.17631 3.37095 7.18379C3.51182 7.19128 3.64667 7.24327 3.75611 7.33228L9.45558 12.216C9.60726 12.3414 9.78482 12.4316 9.9755 12.4802C10.1662 12.5288 10.3652 12.5345 10.5584 12.4971C10.7516 12.4596 10.9341 12.3798 11.0928 12.2635C11.2515 12.1471 11.3824 11.9971 11.4763 11.8241L15.411 4.35325Z" fill="var(--fill-0, white)" fill-opacity="0.5" stroke="var(--stroke-0, #F8FAFC)" stroke-width="2.6658" stroke-linecap="round" stroke-linejoin="round"/>
<g id="Vector_2">
<path d="M6.66449 27.9909H25.3251Z" fill="var(--fill-0, white)" fill-opacity="0.5"/>
<path d="M6.66449 27.9909H25.3251" stroke="var(--stroke-0, #F8FAFC)" stroke-width="2.6658" stroke-linecap="round" stroke-linejoin="round"/>
</g>
</g>
</svg>
