<svg preserveAspectRatio="none" width="100%" height="100%" overflow="visible" style="display: block;" viewBox="0 0 23.9922 23.9922" fill="none" xmlns="http://www.w3.org/2000/svg">
<g id="Icon">
<path id="Vector" d="M11.9961 6.99772V20.9932" stroke="var(--stroke-0, #741CD9)" stroke-width="1.99935" stroke-linecap="round" stroke-linejoin="round"/>
<path id="Vector_2" d="M2.99902 17.9941C2.73389 17.9941 2.47962 17.8888 2.29215 17.7013C2.10467 17.5139 1.99935 17.2596 1.99935 16.9945V3.9987C1.99935 3.73357 2.10467 3.47929 2.29215 3.29182C2.47962 3.10434 2.73389 2.99902 2.99902 2.99902H7.99739C9.05791 2.99902 10.075 3.42031 10.8249 4.17021C11.5748 4.92011 11.9961 5.9372 11.9961 6.99772C11.9961 5.9372 12.4174 4.92011 13.1673 4.17021C13.9172 3.42031 14.9343 2.99902 15.9948 2.99902H20.9932C21.2583 2.99902 21.5126 3.10434 21.7 3.29182C21.8875 3.47929 21.9928 3.73357 21.9928 3.9987V16.9945C21.9928 17.2596 21.8875 17.5139 21.7 17.7013C21.5126 17.8888 21.2583 17.9941 20.9932 17.9941H14.9951C14.1997 17.9941 13.4369 18.3101 12.8745 18.8725C12.3121 19.4349 11.9961 20.1978 11.9961 20.9932C11.9961 20.1978 11.6801 19.4349 11.1177 18.8725C10.5553 18.3101 9.79246 17.9941 8.99707 17.9941H2.99902Z" stroke="var(--stroke-0, #741CD9)" stroke-width="1.99935" stroke-linecap="round" stroke-linejoin="round"/>
</g>
</svg>
