<svg preserveAspectRatio="none" width="100%" height="100%" overflow="visible" style="display: block;" viewBox="0 0 23.9922 23.9922" fill="none" xmlns="http://www.w3.org/2000/svg">
<g id="Icon">
<path id="Vector" d="M11.9961 4.99837C11.9973 4.59853 11.9185 4.20249 11.7644 3.83355C11.6102 3.46461 11.3839 3.13021 11.0986 2.85002C10.8134 2.56983 10.475 2.34951 10.1034 2.20201C9.73172 2.05452 9.33433 1.98283 8.93458 1.99116C8.53483 1.9995 8.14078 2.08768 7.7756 2.25053C7.41043 2.41338 7.08151 2.64761 6.80818 2.93945C6.53486 3.23128 6.32265 3.57482 6.18403 3.94986C6.04542 4.32491 5.9832 4.72389 6.00104 5.12333C5.41344 5.27442 4.86791 5.55724 4.40579 5.95037C3.94367 6.34351 3.57707 6.83664 3.33376 7.39244C3.09044 7.94823 2.97679 8.55211 3.00141 9.15833C3.02603 9.76455 3.18828 10.3572 3.47587 10.8914C2.97021 11.3022 2.57259 11.8304 2.31758 12.4299C2.06258 13.0294 1.95792 13.6821 2.01271 14.3313C2.0675 14.9805 2.28007 15.6065 2.63195 16.1548C2.98382 16.703 3.46433 17.1571 4.03169 17.4773C3.96162 18.0194 4.00343 18.57 4.15453 19.0953C4.30563 19.6206 4.56281 20.1093 4.91018 20.5313C5.25756 20.9532 5.68776 21.2995 6.17421 21.5487C6.66066 21.7979 7.19303 21.9448 7.73845 21.9802C8.28387 22.0156 8.83076 21.9388 9.34534 21.7545C9.85992 21.5703 10.3313 21.2825 10.7303 20.9089C11.1293 20.5354 11.4474 20.084 11.6652 19.5827C11.8829 19.0813 11.9955 18.5407 11.9961 17.9941V4.99837Z" stroke="var(--stroke-0, #13A574)" stroke-width="1.99935" stroke-linecap="round" stroke-linejoin="round"/>
<path id="Vector_2" d="M11.9961 4.99837C11.9949 4.59853 12.0737 4.20249 12.2278 3.83355C12.3819 3.46461 12.6083 3.13021 12.8935 2.85002C13.1788 2.56983 13.5172 2.34951 13.8888 2.20201C14.2605 2.05452 14.6578 1.98283 15.0576 1.99116C15.4573 1.9995 15.8514 2.08768 16.2166 2.25053C16.5817 2.41338 16.9107 2.64761 17.184 2.93945C17.4573 3.23128 17.6695 3.57482 17.8081 3.94986C17.9468 4.32491 18.009 4.72389 17.9911 5.12333C18.5787 5.27442 19.1243 5.55724 19.5864 5.95037C20.0485 6.34351 20.4151 6.83664 20.6584 7.39244C20.9017 7.94823 21.0154 8.55211 20.9908 9.15833C20.9661 9.76455 20.8039 10.3572 20.5163 10.8914C21.022 11.3022 21.4196 11.8304 21.6746 12.4299C21.9296 13.0294 22.0343 13.6821 21.9795 14.3313C21.9247 14.9805 21.7121 15.6065 21.3602 16.1548C21.0084 16.703 20.5278 17.1571 19.9605 17.4773C20.0305 18.0194 19.9887 18.57 19.8376 19.0953C19.6865 19.6206 19.4294 20.1093 19.082 20.5313C18.7346 20.9532 18.3044 21.2995 17.818 21.5487C17.3315 21.7979 16.7991 21.9448 16.2537 21.9802C15.7083 22.0156 15.1614 21.9388 14.6468 21.7545C14.1323 21.5703 13.6609 21.2825 13.2619 20.9089C12.8629 20.5354 12.5447 20.084 12.327 19.5827C12.1093 19.0813 11.9967 18.5407 11.9961 17.9941V4.99837Z" stroke="var(--stroke-0, #13A574)" stroke-width="1.99935" stroke-linecap="round" stroke-linejoin="round"/>
<path id="Vector_3" d="M14.9951 12.9958C14.1558 12.7005 13.4229 12.163 12.8891 11.4513C12.3553 10.7395 12.0445 9.88544 11.9961 8.99707C11.9476 9.88544 11.6369 10.7395 11.1031 11.4513C10.5692 12.163 9.83635 12.7005 8.99707 12.9958" stroke="var(--stroke-0, #13A574)" stroke-width="1.99935" stroke-linecap="round" stroke-linejoin="round"/>
<path id="Vector_4" d="M17.5933 6.49833C17.8353 6.07891 17.9722 5.60715 17.9923 5.12333" stroke="var(--stroke-0, #13A574)" stroke-width="1.99935" stroke-linecap="round" stroke-linejoin="round"/>
<path id="Vector_5" d="M6.00104 5.12333C6.02082 5.60706 6.15737 6.07882 6.39904 6.49833" stroke="var(--stroke-0, #13A574)" stroke-width="1.99935" stroke-linecap="round" stroke-linejoin="round"/>
<path id="Vector_6" d="M3.47587 10.8926C3.65881 10.7436 3.85457 10.6111 4.06087 10.4966" stroke="var(--stroke-0, #13A574)" stroke-width="1.99935" stroke-linecap="round" stroke-linejoin="round"/>
<path id="Vector_7" d="M19.9315 10.4966C20.1378 10.6111 20.3336 10.7436 20.5165 10.8926" stroke="var(--stroke-0, #13A574)" stroke-width="1.99935" stroke-linecap="round" stroke-linejoin="round"/>
<path id="Vector_8" d="M5.99868 17.9943C5.30951 17.9946 4.63195 17.8169 4.03168 17.4783" stroke="var(--stroke-0, #13A574)" stroke-width="1.99935" stroke-linecap="round" stroke-linejoin="round"/>
<path id="Vector_9" d="M19.9611 17.4783C19.3609 17.8169 18.6833 17.9946 17.9941 17.9943" stroke="var(--stroke-0, #13A574)" stroke-width="1.99935" stroke-linecap="round" stroke-linejoin="round"/>
</g>
</svg>
