<svg preserveAspectRatio="none" width="100%" height="100%" overflow="visible" style="display: block;" viewBox="0 0 29.7123 31.9896" fill="none" xmlns="http://www.w3.org/2000/svg">
<g id="Icon">
<path id="Vector" d="M4.95206 18.4708C4.71778 18.4716 4.48809 18.4059 4.28966 18.2814C4.09124 18.1568 3.93222 17.9785 3.8311 17.7672C3.72997 17.5559 3.69088 17.3202 3.71838 17.0875C3.74587 16.8549 3.83881 16.6348 3.98641 16.4528L16.2427 3.8251C16.3347 3.71898 16.46 3.64727 16.598 3.62174C16.7361 3.59621 16.8787 3.61837 17.0026 3.68459C17.1264 3.75082 17.224 3.85716 17.2794 3.98618C17.3348 4.11519 17.3447 4.25921 17.3074 4.39459L14.9305 11.8474C14.8604 12.035 14.8368 12.2368 14.8619 12.4355C14.8869 12.6342 14.9597 12.8238 15.0742 12.9882C15.1886 13.1525 15.3412 13.2866 15.5189 13.3791C15.6965 13.4715 15.8939 13.5194 16.0942 13.5188H24.7603C24.9946 13.518 25.2243 13.5836 25.4227 13.7082C25.6211 13.8327 25.7801 14.011 25.8812 14.2224C25.9824 14.4337 26.0215 14.6694 25.994 14.902C25.9665 15.1347 25.8735 15.3548 25.7259 15.5367L13.4696 28.1645C13.3777 28.2706 13.2524 28.3423 13.1143 28.3678C12.9762 28.3934 12.8336 28.3712 12.7098 28.305C12.586 28.2388 12.4884 28.1324 12.433 28.0034C12.3776 27.8744 12.3677 27.7304 12.4049 27.595L14.7819 20.1421C14.852 19.9545 14.8755 19.7528 14.8505 19.5541C14.8255 19.3554 14.7526 19.1657 14.6382 19.0014C14.5237 18.8371 14.3712 18.7029 14.1935 18.6105C14.0158 18.5181 13.8184 18.4702 13.6182 18.4708H4.95206Z" fill="var(--fill-0, #FEF6C3)" stroke="var(--stroke-0, #D9AE00)" stroke-width="2.47603" stroke-linecap="round" stroke-linejoin="round"/>
</g>
</svg>
