<svg preserveAspectRatio="none" width="100%" height="100%" overflow="visible" style="display: block;" viewBox="0 0 23.9922 23.9922" fill="none" xmlns="http://www.w3.org/2000/svg">
<g id="Icon">
<path id="Vector" d="M3.9987 13.9954C3.80952 13.9961 3.62405 13.943 3.46382 13.8425C3.3036 13.7419 3.1752 13.5979 3.09354 13.4273C3.01188 13.2566 2.98032 13.0663 3.00252 12.8785C3.02472 12.6906 3.09977 12.5129 3.21895 12.366L13.1157 2.16929C13.19 2.0836 13.2911 2.0257 13.4026 2.00508C13.5141 1.98446 13.6293 2.00236 13.7293 2.05583C13.8292 2.10931 13.908 2.19518 13.9528 2.29936C13.9975 2.40354 14.0055 2.51983 13.9754 2.62914L12.0561 8.64718C11.9995 8.79865 11.9805 8.9616 12.0007 9.12203C12.0209 9.28247 12.0797 9.4356 12.1721 9.56831C12.2645 9.70101 12.3877 9.80932 12.5312 9.88394C12.6746 9.95856 12.8341 9.99727 12.9958 9.99674H19.9935C20.1827 9.99609 20.3681 10.0491 20.5283 10.1497C20.6886 10.2503 20.817 10.3943 20.8986 10.5649C20.9803 10.7355 21.0119 10.9258 20.9897 11.1137C20.9675 11.3016 20.8924 11.4793 20.7732 11.6262L10.8765 21.8229C10.8022 21.9086 10.701 21.9665 10.5896 21.9871C10.4781 22.0077 10.3629 21.9898 10.2629 21.9363C10.1629 21.8829 10.0841 21.797 10.0394 21.6928C9.99465 21.5886 9.98666 21.4723 10.0167 21.363L11.9361 15.345C11.9927 15.1935 12.0117 15.0306 11.9915 14.8701C11.9713 14.7097 11.9125 14.5566 11.8201 14.4239C11.7277 14.2912 11.6044 14.1829 11.461 14.1082C11.3175 14.0336 11.1581 13.9949 10.9964 13.9954H3.9987Z" fill="var(--fill-0, #D9AE00)" stroke="var(--stroke-0, #D9AE00)" stroke-width="1.99935" stroke-linecap="round" stroke-linejoin="round"/>
</g>
</svg>
