<svg preserveAspectRatio="none" width="100%" height="100%" overflow="visible" style="display: block;" viewBox="0 0 48.6577 47.1087" fill="none" xmlns="http://www.w3.org/2000/svg">
<g id="Icon" filter="url(#filter0_d_0_181)">
<path id="Vector" d="M23.5389 5.15745C23.612 5.00994 23.7248 4.88576 23.8646 4.79894C24.0044 4.71213 24.1658 4.66612 24.3304 4.66612C24.495 4.66612 24.6563 4.71213 24.7961 4.79894C24.936 4.88576 25.0487 5.00994 25.1218 5.15745L28.9705 12.9532C29.2241 13.4664 29.5983 13.9103 30.0612 14.2469C30.5241 14.5835 31.0617 14.8028 31.628 14.8859L40.2352 16.1455C40.3983 16.1692 40.5515 16.238 40.6775 16.3441C40.8035 16.4503 40.8973 16.5896 40.9483 16.7464C40.9993 16.9031 41.0054 17.0709 40.9659 17.2309C40.9264 17.3909 40.843 17.5367 40.725 17.6517L34.5004 23.7131C34.0899 24.1131 33.7827 24.6069 33.6054 25.152C33.4281 25.697 33.3858 26.277 33.4824 26.842L34.9519 35.4059C34.9807 35.5689 34.9631 35.7368 34.9011 35.8902C34.8391 36.0437 34.7352 36.1767 34.6012 36.274C34.4673 36.3712 34.3087 36.4289 34.1436 36.4404C33.9785 36.4519 33.8134 36.4167 33.6673 36.3389L25.9732 32.2936C25.4662 32.0274 24.9021 31.8883 24.3295 31.8883C23.7569 31.8883 23.1929 32.0274 22.6859 32.2936L14.9934 36.3389C14.8473 36.4163 14.6825 36.4511 14.5176 36.4393C14.3528 36.4276 14.1945 36.3699 14.0609 36.2727C13.9272 36.1755 13.8235 36.0427 13.7616 35.8895C13.6996 35.7362 13.6819 35.5687 13.7105 35.4059L15.1783 26.8437C15.2753 26.2785 15.2333 25.6981 15.0559 25.1527C14.8786 24.6073 14.5712 24.1132 14.1603 23.7131L7.9357 17.6534C7.81673 17.5385 7.73242 17.3925 7.69239 17.232C7.65235 17.0715 7.65819 16.903 7.70924 16.7457C7.76029 16.5883 7.85451 16.4485 7.98115 16.3421C8.10779 16.2357 8.26177 16.167 8.42554 16.1439L17.0311 14.8859C17.598 14.8035 18.1364 14.5845 18.5999 14.2478C19.0634 13.9111 19.4381 13.4669 19.6919 12.9532L23.5389 5.15745Z" fill="var(--fill-0, #F8FAFC)" stroke="var(--stroke-0, #F8FAFC)" stroke-width="3.33225" stroke-linecap="round" stroke-linejoin="round"/>
</g>
<defs>
<filter id="filter0_d_0_181" x="-1.66312" y="-1.6663" width="51.987" height="51.987" filterUnits="userSpaceOnUse" color-interpolation-filters="sRGB">
<feFlood flood-opacity="0" result="BackgroundImageFix"/>
<feColorMatrix in="SourceAlpha" type="matrix" values="0 0 0 0 0 0 0 0 0 0 0 0 0 0 0 0 0 0 127 0" result="hardAlpha"/>
<feOffset dy="3"/>
<feGaussianBlur stdDeviation="3"/>
<feColorMatrix type="matrix" values="0 0 0 0 0 0 0 0 0 0 0 0 0 0 0 0 0 0 0.12 0"/>
<feBlend mode="normal" in2="BackgroundImageFix" result="effect1_dropShadow_0_181"/>
<feBlend mode="normal" in="SourceGraphic" in2="effect1_dropShadow_0_181" result="shape"/>
</filter>
</defs>
</svg>
