<svg width="389" height="89" viewBox="0 0 389 89" fill="none" xmlns="http://www.w3.org/2000/svg">
<path d="M121 88.1265H56.6912L109.18 68.4256L121 88.1265Z" fill="#18CF91"/>
<path d="M85.0961 64.0482L0 79.5242L20.8418 44.8515L85.0961 64.0482Z" fill="#741CD9"/>
<path d="M102.471 57.2461L37.1102 42.6186L65.8522 28.7731L72.1211 38.766L81.9932 23.1152L102.471 57.2461Z" fill="#020617"/>
<path d="M65.3462 27.9666L23.9828 39.6262L47.802 0L65.3462 27.9666Z" fill="#020617"/>
<path d="M123.37 51.4424H130.886C131.066 53.1126 131.721 54.6248 132.849 55.979C134.023 57.288 135.558 58.3263 137.453 59.0936C139.394 59.8159 141.606 60.177 144.089 60.177C146.301 60.177 148.129 59.9061 149.573 59.3645C151.018 58.8228 152.079 58.078 152.756 57.13C153.478 56.137 153.839 54.9859 153.839 53.6769C153.839 52.3678 153.41 51.3522 152.553 50.6299C151.74 49.8626 150.476 49.2306 148.761 48.7341C147.046 48.1924 144.856 47.6733 142.193 47.1767C139.981 46.7705 137.837 46.2288 135.761 45.5517C133.684 44.8746 131.811 44.017 130.141 42.9788C128.516 41.9405 127.229 40.6766 126.281 39.187C125.333 37.6523 124.859 35.8467 124.859 33.7703C124.859 31.423 125.514 29.3014 126.823 27.4056C128.177 25.5097 130.163 24.0201 132.781 22.9367C135.4 21.8534 138.582 21.3117 142.328 21.3117C148.061 21.3117 152.44 22.6433 155.464 25.3066C158.489 27.9247 159.956 31.4907 159.865 36.0047H152.485C152.35 33.1609 151.311 31.107 149.37 29.8431C147.429 28.5792 144.969 27.9472 141.99 27.9472C139.327 27.9472 137.092 28.4212 135.287 29.3691C133.481 30.3171 132.578 31.8518 132.578 33.9734C132.578 34.8762 132.781 35.6661 133.188 36.3432C133.639 36.9752 134.361 37.562 135.354 38.1037C136.347 38.6002 137.702 39.0967 139.417 39.5933C141.177 40.0447 143.322 40.5412 145.849 41.0829C148.016 41.444 150.047 41.9405 151.943 42.5725C153.839 43.2045 155.487 43.9944 156.886 44.9423C158.331 45.8903 159.459 47.109 160.272 48.5986C161.084 50.0883 161.49 51.9164 161.49 54.0831C161.49 56.5658 160.858 58.7776 159.594 60.7187C158.331 62.6145 156.39 64.1267 153.771 65.2552C151.198 66.3385 147.858 66.8802 143.75 66.8802C140.636 66.8802 137.905 66.5191 135.558 65.7969C133.255 65.0295 131.292 64.059 129.667 62.8854C128.042 61.6666 126.733 60.3575 125.74 58.9582C124.792 57.5589 124.115 56.2047 123.708 54.8956C123.347 53.5414 123.234 52.3904 123.37 51.4424ZM170.746 22.1242H178.465V66H170.746V22.1242ZM221.164 62.0051H217.71L241.002 22.1242H248.654V66H241.002V33.1609L242.763 33.6348L223.669 66H215.273L196.179 33.7703L198.007 33.2286V66H190.288V22.1242H198.007L221.164 62.0051ZM290.063 62.0051H286.61L309.902 22.1242H317.553V66H309.902V33.1609L311.663 33.6348L292.569 66H284.173L265.079 33.7703L266.907 33.2286V66H259.188V22.1242H266.907L290.063 62.0051Z" fill="#020617"/>
<path d="M329.568 22.1242H337.287V66H329.568V22.1242ZM345.047 22.1242H387.163V28.7598H345.047V22.1242ZM362.313 27.9472H369.965V66H362.313V27.9472Z" fill="#020617"/>
</svg>
