<svg preserveAspectRatio="none" width="100%" height="100%" overflow="visible" style="display: block;" viewBox="0 0 26.6014 37.0625" fill="none" xmlns="http://www.w3.org/2000/svg">
<path id="Vector" fill-rule="evenodd" clip-rule="evenodd" d="M17.8272 26.5625C20.9972 14.9225 14.1172 7.68253 17.2172 7.32253C17.5472 7.28253 17.7172 7.45252 17.7872 7.11252C18.0472 5.71252 16.5472 0.452522 18.3172 0.0125215C19.6072 -0.307478 20.2672 5.60252 20.4472 6.68252C20.7172 5.81252 22.1972 5.78253 22.6372 6.57253C22.9272 6.17253 24.2872 5.82253 24.7672 7.17253C25.1872 6.44253 27.4772 5.75253 26.2372 11.8425C26.4472 13.1925 25.9472 14.6525 25.3272 15.2525C25.3272 15.2525 26.6672 26.1625 25.9072 30.3425C24.7172 36.9725 23.0972 36.5825 22.0872 37.0625C22.4772 33.5925 21.0672 28.7025 17.8272 26.5625ZM1.20721 23.7125C-0.662792 24.1425 -0.212789 26.6125 1.54721 26.4325C2.02721 27.8725 2.28721 29.1725 2.32721 30.3125C3.73721 30.6125 5.23721 30.8525 7.18721 30.2425C7.18721 30.2425 7.10721 29.7025 7.12721 28.8925C8.06721 28.4025 9.96721 28.3125 9.33721 23.0925C9.02721 20.5525 6.76721 19.9025 5.61721 20.5825C5.33721 20.5425 3.73721 20.3325 2.52721 21.4825C1.54721 22.4225 1.22721 23.2925 1.20721 23.7125Z" fill="var(--fill-0, #FFD8C0)"/>
</svg>
