<svg preserveAspectRatio="none" width="100%" height="100%" overflow="visible" style="display: block;" viewBox="0 0 11.9825 11.9825" fill="none" xmlns="http://www.w3.org/2000/svg">
<g id="Icon" clip-path="url(#clip0_0_223)">
<path id="Vector" d="M1.99709 6.98981C1.90261 6.99013 1.80998 6.96364 1.72995 6.91341C1.64993 6.86318 1.58581 6.79128 1.54502 6.70605C1.50424 6.62083 1.48848 6.52578 1.49956 6.43195C1.51065 6.33813 1.54813 6.24937 1.60766 6.176L6.55045 1.08342C6.58753 1.04062 6.63805 1.0117 6.69373 1.00141C6.74941 0.99111 6.80694 1.00005 6.85687 1.02676C6.9068 1.05346 6.94617 1.09635 6.96851 1.14838C6.99085 1.20041 6.99484 1.25849 6.97983 1.31309L6.02122 4.3187C5.99296 4.39436 5.98346 4.47574 5.99356 4.55586C6.00365 4.63599 6.03304 4.71247 6.07918 4.77875C6.12533 4.84502 6.18687 4.89912 6.25851 4.93638C6.33016 4.97365 6.40978 4.99298 6.49054 4.99272H9.98544C10.0799 4.9924 10.1726 5.01889 10.2526 5.06912C10.3326 5.11935 10.3967 5.19125 10.4375 5.27648C10.4783 5.3617 10.4941 5.45675 10.483 5.55058C10.4719 5.64441 10.4344 5.73316 10.3749 5.80654L5.43208 10.8991C5.395 10.9419 5.34448 10.9708 5.2888 10.9811C5.23312 10.9914 5.17559 10.9825 5.12566 10.9558C5.07573 10.9291 5.03637 10.8862 5.01402 10.8342C4.99168 10.7821 4.98769 10.724 5.00271 10.6694L5.96131 7.66383C5.98958 7.58818 5.99907 7.5068 5.98897 7.42667C5.97888 7.34654 5.9495 7.27006 5.90335 7.20379C5.8572 7.13751 5.79566 7.08342 5.72402 7.04615C5.65237 7.00888 5.57275 6.98955 5.49199 6.98981H1.99709Z" stroke="var(--stroke-0, #64748B)" stroke-width="0.998544" stroke-linecap="round" stroke-linejoin="round"/>
</g>
<defs>
<clipPath id="clip0_0_223">
<rect width="11.9825" height="11.9825" fill="white"/>
</clipPath>
</defs>
</svg>
