<svg preserveAspectRatio="none" width="100%" height="100%" overflow="visible" style="display: block;" viewBox="0 0 19.9799 19.9799" fill="none" xmlns="http://www.w3.org/2000/svg">
<g id="Icon" opacity="0.8" clip-path="url(#clip0_0_185)">
<path id="Vector" d="M3.32999 11.655C3.17245 11.6555 3.01799 11.6113 2.88456 11.5276C2.75113 11.4438 2.6442 11.3239 2.5762 11.1818C2.5082 11.0397 2.48192 10.8812 2.5004 10.7248C2.51889 10.5683 2.58139 10.4203 2.68064 10.298L10.9224 1.80652C10.9842 1.73516 11.0684 1.68693 11.1613 1.66977C11.2541 1.6526 11.35 1.6675 11.4333 1.71203C11.5165 1.75656 11.5822 1.82808 11.6194 1.91483C11.6567 2.00159 11.6633 2.09843 11.6383 2.18947L10.0399 7.2011C9.99278 7.32724 9.97695 7.46293 9.99378 7.59654C10.0106 7.73014 10.0596 7.85767 10.1366 7.96818C10.2135 8.07869 10.3161 8.16889 10.4356 8.23103C10.555 8.29317 10.6878 8.32541 10.8225 8.32497H16.6499C16.8075 8.32443 16.9619 8.3686 17.0954 8.45236C17.2288 8.53611 17.3357 8.65601 17.4037 8.79811C17.4717 8.94022 17.498 9.0987 17.4795 9.25515C17.461 9.4116 17.3985 9.55959 17.2993 9.68194L9.05757 18.1734C8.99574 18.2448 8.9115 18.293 8.81865 18.3102C8.72581 18.3273 8.62989 18.3124 8.54664 18.2679C8.46338 18.2234 8.39774 18.1518 8.36049 18.0651C8.32323 17.9783 8.31658 17.8815 8.34162 17.7905L9.94001 12.7788C9.98714 12.6527 10.003 12.517 9.98614 12.3834C9.96931 12.2498 9.92032 12.1223 9.84337 12.0117C9.76642 11.9012 9.66381 11.811 9.54435 11.7489C9.42488 11.6868 9.29213 11.6545 9.15746 11.655H3.32999Z" fill="var(--fill-0, #18CF91)" stroke="var(--stroke-0, #18CF91)" stroke-width="1.66499" stroke-linecap="round" stroke-linejoin="round"/>
</g>
<defs>
<clipPath id="clip0_0_185">
<rect width="19.9799" height="19.9799" fill="white"/>
</clipPath>
</defs>
</svg>
